<svg width="22" height="32" viewBox="0 0 22 32" fill="none" xmlns="http://www.w3.org/2000/svg">
<path d="M0.397013 14.7564C0.691559 13.0546 2.10538 11.3855 4.5141 11.752C5.75774 11.9418 6.8181 12.4458 7.26974 12.6618L7.40065 12.7207C7.43992 12.7404 7.47265 12.7731 7.50538 12.7993C7.57083 12.7076 7.62974 12.6226 7.67556 12.5636C7.72792 12.4851 7.83265 12.472 7.91119 12.5244L10.5817 14.4487C10.6865 14.2589 10.8043 14.0887 10.9352 13.9316C10.6996 13.8007 10.5032 13.6306 10.3396 13.4407C10.0581 13.1069 9.90101 12.688 9.90101 12.2429C9.90101 11.6669 10.1759 10.7833 10.621 10.0698H10.5883L9.1352 6.93456H8.70974C7.42029 6.93456 6.37956 5.88728 6.37956 4.59783V3.74692H10.261L9.4952 0.945465H14.8756L14.1097 3.74692H17.9912V4.59783C17.9912 5.88728 16.9505 6.93456 15.6545 6.93456H15.2356L13.7825 10.0698H13.7497C14.1948 10.7833 14.4697 11.6669 14.4697 12.2429C14.4697 12.9564 14.0639 13.5782 13.4356 13.9316C13.4683 13.9709 13.501 14.0167 13.5207 14.0495C14.0967 14.8022 14.4697 15.8887 14.4697 16.5629C14.4697 16.9164 14.365 17.2633 14.1621 17.5578L14.2407 17.8916C16.1781 18.0815 17.7228 18.448 18.8879 18.9913C20.0596 19.5346 20.8516 20.2546 21.2836 21.1578C22.1214 22.912 21.565 25.2095 19.5817 28.1811C19.549 28.2269 19.5163 28.2662 19.477 28.3055L19.4705 28.312C18.9468 29.4313 17.9454 30.3869 16.6494 31.0546H7.72792C5.77083 30.0466 4.48792 28.384 4.48792 26.512C4.48792 24.1687 6.4712 22.1593 9.29883 21.3346L9.8552 19.024V19.0175C8.44138 19.2204 7.15192 19.3251 6.00647 19.3251C5.0181 19.3251 4.13447 19.2466 3.35556 19.1026C0.999195 18.6509 0.0893764 16.576 0.397013 14.7564ZM15.0719 21.3346C16.6887 21.8058 18.037 22.6633 18.8879 23.7564C19.2676 24.2342 19.5425 24.7578 19.6996 25.3142C20.3803 23.8218 20.5308 22.6109 20.1054 21.7207C19.4967 20.4378 17.6247 19.6131 14.5679 19.2531L15.0719 21.3346ZM8.60501 27.8931C8.00938 27.4611 7.64938 26.944 7.64938 26.512C7.64938 26.1455 7.35483 25.8575 6.99483 25.8575C6.63483 25.8575 6.34029 26.1455 6.34029 26.512C6.34029 27.4415 6.95556 28.384 8.0421 29.0975C8.14683 29.1629 8.2712 29.2022 8.40211 29.2022H11.3148C11.6748 29.2022 11.9694 28.9076 11.9694 28.5476C11.9694 28.1876 11.6748 27.8931 11.3148 27.8931H8.60501ZM3.60429 17.8131C5.19483 18.1207 7.32211 18.0749 9.92065 17.6887C10.0036 17.6766 10.0882 17.681 10.1694 17.7018L10.2021 17.5578C9.9577 17.1899 9.85749 16.7448 9.92065 16.3076L6.79847 14.0691C6.73302 14.0233 6.71992 13.9382 6.75265 13.8662L6.70683 13.8466C6.30756 13.6567 5.37156 13.2116 4.3112 13.048C2.77301 12.8124 1.88283 13.8466 1.68647 14.9789C1.4901 16.1309 2.0072 17.512 3.60429 17.8131Z" fill="white"/>
</svg>
