<svg width="451" height="439" viewBox="0 0 451 439" fill="none" xmlns="http://www.w3.org/2000/svg">
<rect width="451" height="439" rx="50" fill="white"/>
<path d="M181.808 194.317C184.506 213.25 193.193 253.822 208.974 253.822C224.755 253.822 219.792 229.236 221.411 216.902C223.11 203.919 228.883 199.077 233.064 199.185C237.245 199.293 243.018 203.919 244.719 216.902C246.337 229.236 241.4 253.822 257.155 253.822C272.909 253.822 281.623 213.25 284.32 194.317C287.018 175.384 300.507 167.268 296.81 138.301C293.088 109.333 276.227 102.355 258.882 102.355C247.524 102.355 239.97 107.007 233.064 110.955C226.158 107.007 218.605 102.354 207.247 102.354C189.901 102.354 173.041 109.333 169.345 138.301C165.622 167.268 179.111 175.384 181.808 194.317Z" fill="#F9F7F3"/>
<path d="M296.789 139.334C293.657 114.786 280.558 102.355 257.829 102.355C246.955 102.355 239.551 106.507 233.053 110.267C226.555 106.507 219.152 102.354 208.279 102.354C185.55 102.354 172.45 114.811 169.343 139.334C167.014 157.666 171.44 167.616 175.738 177.252C178.145 182.632 180.398 187.724 181.303 194.123C183.297 208.12 191.219 253.822 209.936 253.822C223.993 253.822 224.045 237.578 224.07 225.748C224.07 222.091 224.07 218.618 224.433 215.903C225.857 204.882 230.232 201.017 232.976 201.069C235.332 201.122 240.147 204.307 241.674 215.903C242.036 218.618 242.036 222.066 242.036 225.748C242.063 237.604 242.114 253.822 256.172 253.822C274.889 253.822 282.811 208.121 284.803 194.123C285.71 187.698 287.987 182.632 290.396 177.226C294.693 167.616 299.12 157.666 296.816 139.334L296.789 139.334ZM285.658 175.085C283.224 180.569 280.687 186.236 279.678 193.365C275.924 219.951 266.941 248.573 256.172 248.573C247.913 248.573 247.24 239.093 247.214 225.695C247.214 221.857 247.214 218.227 246.8 215.198C244.962 201.122 238.283 195.977 233.131 195.82L232.924 195.82C227.359 195.82 221.067 201.775 219.307 215.198C218.919 218.227 218.893 221.857 218.893 225.695C218.867 239.093 218.194 248.573 209.936 248.573C199.166 248.573 190.183 219.951 186.43 193.365C185.42 186.236 182.883 180.569 180.45 175.085C176.462 166.127 172.32 156.856 174.47 139.987C177.265 117.867 188.008 107.551 208.279 107.551C216.382 107.551 222.259 110.189 227.669 113.193C224.588 114.628 220.032 116.196 211.67 117.736C211.035 117.852 210.466 118.204 210.075 118.723C209.684 119.241 209.499 119.888 209.558 120.537C209.616 121.185 209.914 121.789 210.391 122.227C210.868 122.666 211.491 122.909 212.137 122.907C212.291 122.907 212.447 122.907 212.602 122.855C226.53 120.296 234.348 115.516 234.348 115.516L235.28 114.968C241.596 111.312 248.147 107.551 257.829 107.551C278.073 107.551 288.842 117.867 291.664 139.987C293.813 156.856 289.671 166.127 285.658 175.085Z" fill="#1A2C3D"/>
<path d="M93.3921 287.103L97.9628 299.489L97.9628 326.383L94.7152 336.646L50.6309 336.646C50.5911 336.646 50.5707 335.206 50.5707 332.328C50.6106 324.213 50.6309 314.823 50.6309 304.16L62.7796 304.16L62.7796 324.26L85.8141 324.26L85.8141 299.489L50.6309 299.489L45.9999 287.103C68.9743 287.103 84.7714 287.103 93.3921 287.103ZM113.027 311.52L113.027 326.949L136.844 326.949L136.844 336.646L104.848 336.646L101.42 327.374L101.42 311.096L104.848 301.824L136.844 301.824L140.272 311.096L140.272 322.844L116.997 322.844L116.997 315.838L128.664 315.838L128.664 311.52L113.027 311.52ZM177.583 301.824L181.012 311.096L181.012 336.646L169.464 336.646L169.464 314.21L155.271 314.21L155.271 336.646L143.663 336.646L143.663 301.824L177.583 301.824ZM197.18 313.007L197.18 324.26L215.223 324.26L215.223 336.646L185.513 336.646L185.573 310.742L182.265 301.824L185.573 301.824L185.573 283.564L197.18 283.564L197.18 301.824L212.938 301.824L212.938 313.007L197.18 313.007ZM253.792 301.824L257.28 311.096L257.28 336.646L245.673 336.646L245.673 313.007L230.096 313.007L230.096 325.463L241.643 325.463L241.643 336.646L218.489 336.646L218.489 301.824L253.792 301.824ZM276.701 317.041L260.222 317.041L260.222 306.779L276.701 306.779L276.701 317.041ZM328.095 324.26L332.666 336.646L319.134 336.646L314.563 324.26L298.084 324.26C298.084 321.193 298.084 317.065 298.084 311.874L319.074 311.874L319.074 299.489L294.055 299.489C294.055 300.999 294.055 313.384 294.055 336.646L282.507 336.646C282.507 330.181 282.507 323.033 282.507 315.201C282.507 307.369 282.507 302.131 282.507 299.489L277.876 287.103L326.652 287.103L331.283 299.489L331.283 324.26L328.095 324.26ZM346.901 311.52L346.901 326.949L370.717 326.949L370.717 336.646L338.722 336.646L335.294 327.374L335.294 311.096L338.722 301.824L370.717 301.824L374.145 311.096L374.145 322.844L350.87 322.844L350.87 315.838L362.538 315.838L362.538 311.52L346.901 311.52ZM374.049 283.635C376.334 283.588 381.345 283.564 389.084 283.564L389.084 336.646L377.477 336.646L377.477 292.907L374.049 283.635ZM389.964 283.635C392.25 283.588 397.262 283.564 405 283.564L405 336.646L393.393 336.646L393.393 292.907L389.964 283.635Z" fill="#1A2C3D"/>
</svg>
