<svg width="294" height="192" viewBox="0 0 294 192" fill="none" xmlns="http://www.w3.org/2000/svg">
<path d="M116.038 75.6107C117.858 90.6045 123.719 122.733 134.366 122.733C145.014 122.733 141.665 103.263 142.757 93.496C143.904 83.2148 147.799 79.3809 150.62 79.4663C153.441 79.5517 157.336 83.2148 158.483 93.496C159.575 103.263 156.245 122.733 166.875 122.733C177.504 122.733 183.383 90.6045 185.203 75.6107C187.023 60.6177 196.124 54.1912 193.63 31.2518C191.118 8.31168 179.742 2.78564 168.039 2.78564C160.377 2.78564 155.28 6.46967 150.62 9.59637C145.961 6.46967 140.864 2.78564 133.202 2.78564C121.498 2.78564 110.122 8.31168 107.629 31.2518C105.117 54.1912 114.218 60.6177 116.038 75.6107Z" fill="#F9F7F3"/>
<path d="M195.432 30.9735C193.23 10.8394 184.02 0.643555 168.04 0.643555C160.395 0.643555 155.189 4.04967 150.62 7.13368C146.052 4.04967 140.847 0.643555 133.202 0.643555C117.221 0.643555 108.011 10.8604 105.827 30.9735C104.189 46.01 107.301 54.1706 110.323 62.0742C112.015 66.4864 113.599 70.6633 114.236 75.9114C115.637 87.392 121.207 124.876 134.367 124.876C144.25 124.876 144.287 111.553 144.305 101.85C144.305 98.8508 144.305 96.002 144.56 93.775C145.56 84.7357 148.637 81.5655 150.566 81.6082C152.223 81.6517 155.608 84.2645 156.682 93.775C156.936 96.002 156.936 98.8298 156.936 101.85C156.955 111.574 156.991 124.876 166.875 124.876C180.034 124.876 185.604 87.392 187.005 75.9114C187.642 70.6416 189.244 66.4864 190.937 62.0525C193.958 54.1706 197.071 46.01 195.451 30.9735H195.432ZM187.606 60.2966C185.895 64.7942 184.111 69.4423 183.401 75.2897C180.762 97.0949 174.446 120.571 166.875 120.571C161.068 120.571 160.595 112.795 160.577 101.807C160.577 98.6583 160.577 95.6814 160.286 93.1967C158.994 81.6517 154.297 77.4321 150.675 77.3032H150.529C146.616 77.3032 142.193 82.1873 140.956 93.1967C140.683 95.6814 140.665 98.6583 140.665 101.807C140.646 112.795 140.173 120.571 134.367 120.571C126.795 120.571 120.479 97.0949 117.84 75.2897C117.13 69.4423 115.347 64.7942 113.635 60.2966C110.832 52.9496 107.92 45.3455 109.431 31.5091C111.397 13.3669 118.95 4.90588 133.202 4.90588C138.899 4.90588 143.031 7.06926 146.835 9.53302C144.669 10.7106 141.465 11.996 135.586 13.2597C135.139 13.3549 134.74 13.6433 134.465 14.0688C134.19 14.4935 134.06 15.0246 134.101 15.5564C134.142 16.0883 134.351 16.5835 134.687 16.943C135.022 17.3026 135.46 17.5018 135.914 17.5003C136.023 17.5003 136.132 17.5003 136.241 17.4576C146.034 15.3587 151.531 11.4387 151.531 11.4387L152.186 10.9892C156.627 7.99064 161.232 4.90588 168.04 4.90588C182.273 4.90588 189.845 13.3669 191.829 31.5091C193.339 45.3455 190.427 52.9496 187.606 60.2966Z" fill="#1A2C3D"/>
<path d="M39.085 151.602L42.8101 161.696V183.615L40.1634 191.978H4.23578C4.20331 191.978 4.18677 190.805 4.18677 188.46C4.21923 181.846 4.23578 174.193 4.23578 165.503H14.1367V181.884H32.9092V161.696H4.23578L0.46167 151.602C19.1852 151.602 32.0594 151.602 39.085 151.602ZM55.0873 171.502V184.076H74.497V191.978H48.4213L45.6275 184.422V171.156L48.4213 163.6H74.497L77.2908 171.156V180.731H58.3223V175.02H67.8311V171.502H55.0873ZM107.699 163.6L110.493 171.156V191.978H101.082V173.694H89.5145V191.978H80.0547V163.6H107.699ZM123.67 172.713V181.884H138.374V191.978H114.161L114.21 170.867L111.514 163.6H114.21V148.718H123.67V163.6H136.512V172.713H123.67ZM169.807 163.6L172.65 171.156V191.978H163.19V172.713H150.495V182.865H159.906V191.978H141.036V163.6H169.807ZM188.477 176.001H175.047V167.637H188.477V176.001ZM230.362 181.884L234.087 191.978H223.059L219.334 181.884H205.904C205.904 179.385 205.904 176.02 205.904 171.79H223.01V161.696H202.62C202.62 162.927 202.62 173.021 202.62 191.978H193.209C193.209 186.71 193.209 180.884 193.209 174.501C193.209 168.118 193.209 163.85 193.209 161.696L189.435 151.602H229.186L232.96 161.696V181.884H230.362ZM245.689 171.502V184.076H265.098V191.978H239.023L236.229 184.422V171.156L239.023 163.6H265.098L267.892 171.156V180.731H248.923V175.02H258.432V171.502H245.689ZM267.813 148.776C269.676 148.738 273.76 148.718 280.067 148.718V191.978H270.607V156.332L267.813 148.776ZM280.784 148.776C282.647 148.738 286.731 148.718 293.038 148.718V191.978H283.578V156.332L280.784 148.776Z" fill="#1A2C3D"/>
</svg>
