<svg width="18" height="22" viewBox="0 0 18 22" fill="none" xmlns="http://www.w3.org/2000/svg">
<path d="M0.142508 5.48375C0.660007 1.4675 3.00376 0.5 5.41501 0.5C6.82501 0.5 7.81126 1.01375 8.68876 1.5125C8.71876 1.565 8.76001 1.61 8.81626 1.64375L8.86501 1.67375C9.38251 1.97375 10.0275 2.345 11.9663 2.70125C11.9888 2.705 12.0113 2.70875 12.0338 2.70875C12.1273 2.70894 12.2175 2.67411 12.2866 2.61111C12.3557 2.54812 12.3988 2.46152 12.4072 2.36838C12.4157 2.27525 12.389 2.18231 12.3324 2.10788C12.2757 2.03346 12.1933 1.98293 12.1013 1.96625C10.8413 1.73375 10.1775 1.50125 9.73126 1.29125C10.5113 0.875 11.4 0.5075 12.5925 0.5075C15.0038 0.5075 17.3475 1.475 17.8613 5.49125C18.3788 9.5075 16.5038 10.6325 16.1288 13.2575C15.7538 15.8825 14.5463 21.5075 12.3525 21.5075C10.1588 21.5075 10.8488 18.0988 10.6238 16.3888C10.3875 14.5888 9.58501 13.9175 9.00376 13.9325C8.42251 13.9475 7.62001 14.5888 7.38376 16.3888C7.15876 18.0988 7.84501 21.5075 5.65501 21.5075C3.46501 21.5075 2.25376 15.8825 1.87876 13.2575C1.50376 10.6325 -0.371243 9.5075 0.142508 5.49125V5.48375Z" fill="white"/>
</svg>
