<svg width="41" height="40" viewBox="0 0 41 40" fill="none" xmlns="http://www.w3.org/2000/svg">
<path fill-rule="evenodd" clip-rule="evenodd" d="M20.5 0C9.455 0 0.5 8.955 0.5 20C0.5 31.045 9.455 40 20.5 40C31.545 40 40.5 31.045 40.5 20C40.5 8.955 31.545 0 20.5 0ZM29.77 13.6017C29.47 16.7633 28.1667 24.4383 27.505 27.98C27.225 29.48 26.6717 29.9817 26.1383 30.03C24.9767 30.1367 24.095 29.2617 22.97 28.525C21.21 27.3717 20.215 26.6533 18.5067 25.5267C16.5317 24.225 17.8117 23.51 18.9367 22.3417C19.2317 22.035 24.3483 17.38 24.4483 16.9583C24.46 16.905 24.4733 16.7083 24.355 16.605C24.2367 16.5017 24.065 16.5367 23.9417 16.565C23.765 16.605 20.9533 18.4633 15.505 22.14C14.7067 22.6883 13.9833 22.955 13.335 22.9417C12.6217 22.9267 11.2483 22.5383 10.2267 22.205C8.975 21.7983 7.97833 21.5817 8.065 20.8917C8.11 20.5317 8.605 20.1633 9.55167 19.7867C15.3817 17.2467 19.27 15.5717 21.215 14.7617C26.77 12.4517 27.9233 12.05 28.6767 12.0367C29.62 12.0233 29.8467 12.8017 29.77 13.6017Z" fill="#9C07FF"/>
</svg>
