<svg width="41" height="40" viewBox="0 0 41 40" fill="none" xmlns="http://www.w3.org/2000/svg">
<path fill-rule="evenodd" clip-rule="evenodd" d="M6.39503 5.81333C10.1384 2.06667 15.115 0.00166667 20.4167 0C31.3417 0 40.2334 8.89 40.2384 19.82C40.24 23.3133 39.3267 26.7233 37.5917 29.73L40.405 40L29.8984 37.2433C27.0034 38.8233 23.7434 39.655 20.4267 39.6567H20.4184C9.49503 39.6567 0.601692 30.765 0.596695 19.835C0.593361 14.54 2.65336 9.55833 6.39503 5.81333ZM20.4167 36.3083H20.4234C23.38 36.3083 26.2784 35.5133 28.8084 34.0117L29.41 33.655L35.645 35.29L33.98 29.21L34.3717 28.5867C36.0217 25.9633 36.8917 22.9317 36.89 19.82C36.8867 10.7367 29.495 3.34667 20.4084 3.34667C16.0084 3.34667 11.8717 5.06333 8.76169 8.17667C5.6517 11.2917 3.94003 15.43 3.94169 19.8317C3.94669 28.9183 11.3367 36.3083 20.4167 36.3083ZM11.38 23.97C11.875 23.7217 14.31 22.5233 14.765 22.3583C15.2184 22.1933 15.5484 22.11 15.88 22.605C16.2117 23.1 17.1584 24.2167 17.4484 24.5483C17.7367 24.8783 18.0267 24.92 18.5217 24.6717C19.0167 24.4233 20.6134 23.9017 22.505 22.2133C23.9767 20.9 24.9717 19.2783 25.26 18.7817C25.5484 18.285 25.29 18.0183 25.0434 17.7717C24.82 17.55 24.5484 17.1933 24.3 16.9033C24.05 16.6167 23.9684 16.41 23.8017 16.0783C23.6367 15.7483 23.7184 15.4583 23.8434 15.21C23.9684 14.9633 24.9584 12.525 25.37 11.5333C25.7717 10.5667 26.18 10.6983 26.485 10.6833C26.7734 10.6683 27.1034 10.6667 27.435 10.6667C27.765 10.6667 28.3017 10.79 28.755 11.2867C29.2084 11.7833 30.4884 12.9817 30.4884 15.4183C30.4884 17.8567 28.7134 20.2117 28.4667 20.5417C28.22 20.8717 24.975 25.875 20.0067 28.02C18.825 28.53 17.9017 28.835 17.1834 29.0633C15.9967 29.44 14.9167 29.3867 14.0634 29.26C13.1117 29.1183 11.1334 28.0617 10.72 26.905C10.3067 25.7483 10.3067 24.755 10.4317 24.55C10.555 24.3417 10.885 24.2183 11.38 23.97Z" fill="#07B0FF"/>
</svg>
