<svg width="24" height="24" viewBox="0 0 24 24" fill="none" xmlns="http://www.w3.org/2000/svg">
<path fill-rule="evenodd" clip-rule="evenodd" d="M3.53687 3.488C5.78287 1.24 8.76887 0.001 11.9499 0C18.5049 0 23.8399 5.334 23.8429 11.892C23.8439 13.988 23.2959 16.034 22.2549 17.838L23.9429 24L17.6389 22.346C15.9019 23.294 13.9459 23.793 11.9559 23.794H11.9509C5.39687 23.794 0.0608711 18.459 0.0578709 11.901C0.0558701 8.724 1.29187 5.735 3.53687 3.488ZM11.9499 21.785H11.9539C13.7279 21.785 15.4669 21.308 16.9849 20.407L17.3459 20.193L21.0869 21.174L20.0879 17.526L20.3229 17.152C21.3129 15.578 21.8349 13.759 21.8339 11.892C21.8319 6.442 17.3969 2.008 11.9449 2.008C9.30487 2.008 6.82287 3.038 4.95687 4.906C3.09087 6.775 2.06387 9.258 2.06487 11.899C2.06787 17.351 6.50187 21.785 11.9499 21.785ZM6.52787 14.382C6.82487 14.233 8.28587 13.514 8.55887 13.415C8.83087 13.316 9.02887 13.266 9.22787 13.563C9.42687 13.86 9.99487 14.53 10.1689 14.729C10.3419 14.927 10.5159 14.952 10.8129 14.803C11.1099 14.654 12.0679 14.341 13.2029 13.328C14.0859 12.54 14.6829 11.567 14.8559 11.269C15.0289 10.971 14.8739 10.811 14.7259 10.663C14.5919 10.53 14.4289 10.316 14.2799 10.142C14.1299 9.97 14.0809 9.846 13.9809 9.647C13.8819 9.449 13.9309 9.275 14.0059 9.126C14.0809 8.978 14.6749 7.515 14.9219 6.92C15.1629 6.34 15.4079 6.419 15.5909 6.41C15.7639 6.401 15.9619 6.4 16.1609 6.4C16.3589 6.4 16.6809 6.474 16.9529 6.772C17.2249 7.07 17.9929 7.789 17.9929 9.251C17.9929 10.714 16.9279 12.127 16.7799 12.325C16.6319 12.523 14.6849 15.525 11.7039 16.812C10.9949 17.118 10.4409 17.301 10.0099 17.438C9.29787 17.664 8.64987 17.632 8.13787 17.556C7.56687 17.471 6.37987 16.837 6.13187 16.143C5.88387 15.449 5.88387 14.853 5.95887 14.73C6.03287 14.605 6.23087 14.531 6.52787 14.382Z" fill="black"/>
</svg>
